<svg xmlns="http://www.w3.org/2000/svg" xmlns:xlink="http://www.w3.org/1999/xlink" version="1.1" x="0px" y="0px" viewBox="0 0 64 64" style="enable-background:new 0 0 64 64;max-width:100%" xml:space="preserve" height="100%"><rect x="12" y="2" width="8" height="4" style="" fill="currentColor"></rect><path d="M4.26,23.01c-0.79,1-1.26,2.25-1.26,3.6V60c0,1.1,0.9,2,2,2h22c1.1,0,2-0.9,2-2V26.61c0-2.69-1.87-5.03-4.5-5.61  c-1.32-0.29-2.44-1.02-3.24-2.01c-0.79-1-1.26-2.25-1.26-3.6V8h-8v7.39c0,2.69-1.87,5.03-4.5,5.61C6.18,21.29,5.06,22.02,4.26,23.01  z M16,52c-1.1,0-2-0.9-2-2c0-1.1,0.9-2,2-2s2,0.9,2,2C18,51.1,17.1,52,16,52z M18,48c-1.1,0-2-0.9-2-2c0,1.1-0.9,2-2,2s-2-0.9-2-2  c0-1.1,0.9-2,2-2s2,0.9,2,2c0-1.1,0.9-2,2-2s2,0.9,2,2C20,47.1,19.1,48,18,48z M20,44c-1.1,0-2-0.9-2-2c0,1.1-0.9,2-2,2s-2-0.9-2-2  c0,1.1-0.9,2-2,2s-2-0.9-2-2c0-1.1,0.9-2,2-2s2,0.9,2,2c0-1.1,0.9-2,2-2s2,0.9,2,2c0-1.1,0.9-2,2-2s2,0.9,2,2C22,43.1,21.1,44,20,44  z M10,36c1.1,0,2,0.9,2,2c0-1.1,0.9-2,2-2c0.365,0,0.704,0.106,1,0.279V34c0-1.654,1.346-3,3-3h2v2h-2c-0.552,0-1,0.449-1,1v2.279  C17.296,36.106,17.635,36,18,36c1.1,0,2,0.9,2,2c0-1.1,0.9-2,2-2s2,0.9,2,2c0,1.1-0.9,2-2,2s-2-0.9-2-2c0,1.1-0.9,2-2,2s-2-0.9-2-2  c0,1.1-0.9,2-2,2s-2-0.9-2-2c0,1.1-0.9,2-2,2s-2-0.9-2-2C8,36.9,8.9,36,10,36z" style="" fill="currentColor"></path><circle cx="41" cy="21" r="2" style="" fill="currentColor"></circle><circle cx="34" cy="14" r="2" style="" fill="currentColor"></circle><circle cx="41" cy="6" r="3" style="" fill="currentColor"></circle><polygon points="38.936,28 32.732,21.319 31.268,22.681 36.207,28 37.57,28 " style="" fill="currentColor"></polygon><polygon points="49,8 48.097,17 59.903,17 59,8 " style="" fill="currentColor"></polygon><path d="M47.897,19L47,28h10l-5.28,6.6c0.408,0.149,0.839,0.246,1.28,0.313V60h-2h-3h-2V41.75l5.72-7.15  c-0.83-0.28-1.6-0.72-2.25-1.29c-1.22-1.06-2.07-2.55-2.32-4.25L47,28h-8.064l6.797,7.319l-1.465,1.361L36.207,28H33l11,13.75V60h-5  v2h9h3h9v-2h-5V34.921c2.991-0.436,5.408-2.788,5.85-5.861L61,28l-0.897-9H47.897z" style="" fill="currentColor"></path></svg>