<svg xmlns="http://www.w3.org/2000/svg" xmlns:xlink="http://www.w3.org/1999/xlink" version="1.1" x="0px" y="0px" viewBox="0 0 100 100" enable-background="new 0 0 100 100" xml:space="preserve" style="max-width:100%" height="100%"><g style="" fill="currentColor"><path d="M3.054,60.934c0,0-1.192,3.285,10.486,21.637h75.074c0,0,7.388-13.959,7.865-21.637   C96.479,60.934,87.423,74.094,3.054,60.934z" style="" fill="currentColor"></path><path d="M1.028,60.049c0,0,0.714,1.906,1.311,2.98c0,0,64.52,12.631,94.974,0.596c0,0,0.596-1.908,0.715-3.576   C98.028,60.049,80.392,73.328,1.028,60.049z" style="" fill="currentColor"></path><polygon points="52.626,10.954 50.601,65.693 53.937,65.947  " style="" fill="currentColor"></polygon><circle cx="52.626" cy="10.954" r="0.954" style="" fill="currentColor"></circle><path d="M50.827,59.576c0,0-39.193-2.982-47.296-4.174l47.55,3.188" style="" fill="currentColor"></path><circle cx="3.65" cy="55.283" r="0.953" style="" fill="currentColor"></circle><path d="M53.58,55.172c0,0,37.237,0.984,45.758,2.971L53.58,56.273" style="" fill="currentColor"></path><ellipse transform="matrix(-0.9887 0.1499 -0.1499 -0.9887 205.6047 100.8797)" cx="99" cy="58.188" rx="0.476" ry="0.594" style="" fill="currentColor"></ellipse><path d="M52.443,15.899c0,0-23.292,2.75-47.066,39.625c0,0,24.368-7.275,44.546,3.141C49.924,58.664,30.874,53.436,52.443,15.899z" style="" fill="currentColor"></path><path d="M52.626,11.907c0,0,22.105,34.173,44.627,45.849c0,0-7.526-4.641-28.426-2.043C68.827,55.713,55.546,42.591,52.626,11.907z   " style="" fill="currentColor"></path></g></svg>