<svg xmlns="http://www.w3.org/2000/svg" xmlns:xlink="http://www.w3.org/1999/xlink" version="1.1" x="0px" y="0px" viewBox="0 0 100 100" enable-background="new 0 0 100 100" xml:space="preserve" style="max-width:100%" height="100%"><g style="" fill="currentColor"><g style="" fill="currentColor"><path d="M52.079,78.785c-14.7,0-26.658-11.959-26.658-26.657c0-14.7,11.958-26.659,26.658-26.659    c14.698,0,26.657,11.958,26.657,26.659C78.736,66.826,66.777,78.785,52.079,78.785z M52.079,27.426    c-13.621,0-24.701,11.081-24.701,24.702c0,13.62,11.081,24.701,24.701,24.701c13.62,0,24.701-11.081,24.701-24.701    C76.78,38.507,65.699,27.426,52.079,27.426z" style="" fill="currentColor"></path></g></g><g style="" fill="currentColor"><g style="" fill="currentColor"><path d="M52.079,74.139c-12.137,0-22.011-9.875-22.011-22.011c0-12.138,9.874-22.012,22.011-22.012    c12.137,0,22.011,9.874,22.011,22.012C74.09,64.264,64.216,74.139,52.079,74.139z M52.079,31.731    c-11.247,0-20.396,9.149-20.396,20.396c0,11.246,9.149,20.395,20.396,20.395c11.246,0,20.396-9.148,20.396-20.395    C72.475,40.881,63.325,31.731,52.079,31.731z" style="" fill="currentColor"></path></g></g><path d="M19.739,44.14c0,0,2.935,3.347,3.296,5.921c0.361,2.576,2.111,3.142,0,4.273c-2.111,1.135-1.699,1.082-3.296,2.164  c-1.596,1.082-2.008,0.773-1.802,1.34s7.725,0.462,11.741-1.649c4.017-2.11,6.849-1.595,8.445-0.822  c1.596,0.771,6.488,4.479,9.269,4.633c2.78,0.156,12.076,1.159,18.254-0.694c6.18-1.854,15.602-5.794,16.53-8.111  c0.174-0.432,0.232-0.502,0-0.669c0,0-0.231-0.038-0.502-0.051c-0.271-0.013-0.605,0.076-0.656,0.026  c-0.052-0.052,0.064-0.297,0.283-0.528c0.22-0.232,0.54-0.258,0.555-0.412c0.013-0.154-0.914-1.056-1.354-1.327  c-0.437-0.27-1.234-0.861-1.635-1.004c-0.399-0.141-2.755-1.132-3.876-1.595c-1.119-0.464-1.466-0.889-2.625-1.275  c-1.159-0.387-6.257-1.353-9.115-1.353c0,0-8.265,0.335-9.912,0.335s-3.373-0.104-5.278,0.257c-1.905,0.36-2.833,0.438-3.528,0.798  c-0.695,0.361-1.143,0.656-1.268,0.782c-0.125,0.126-0.27,0.135,0.029,0.203c0.299,0.068,0.956,0.173,1.13,0.222  c0.173,0.049,0.367,0.106,0.463,0.164c0.096,0.058,0.193,0.096,0.086,0.164c-0.106,0.067-3.621,1.032-4.509,1.265  c-0.888,0.231-6.353,1.621-7.009,1.64c-0.657,0.021-2.105,0.118-2.452,0.021c-0.349-0.097-2.685-1.236-2.781-1.332  c-0.096-0.097-1.699-0.908-2.085-1.217c-0.386-0.309-2.213-1.486-2.935-1.719c-0.722-0.231-1.468-0.592-2.176-0.554  C20.318,44.075,19.739,44.14,19.739,44.14z" style="" fill="currentColor"></path><path d="M9,43.764c-4-1.497-4-4.965-4-7c0-0.017,0-0.069,0-0.069V22.491C5,21.84,5.527,22,6.179,22h0.137C6.966,22,8,21.84,8,22.491  v14.205c0,0-0.247,0.893,1,0.893c1.248,0,1-0.893,1-0.893V22.491C10,21.84,10.517,22,11.168,22h0.137C11.956,22,13,21.84,13,22.491  v14.205c0,0-0.248,0.832,1,0.832s1-0.832,1-0.832V22.491C15,21.84,15.506,22,16.157,22h0.137C16.945,22,18,21.84,18,22.491v14.205  c0,0,0,0.052,0,0.069c0,2.035,0,5.502-5,7v30.6c0,1.813-0.88,3.286-2,3.286l0,0c-1.12,0-2-1.473-2-3.286V43.764z" style="" fill="currentColor"></path><path d="M87,35.007c0,2.379,0,9.514,0,9.514s0,0.052,0,0.069c0,2.035,0,5.503,4,7v22.773c0,1.813,0.881,3.286,2,3.286l0,0  c1.119,0,2-1.473,2-3.286V21.312C95,21.312,87,19.172,87,35.007z" style="" fill="currentColor"></path></svg>