<svg xmlns="http://www.w3.org/2000/svg" version="1.1" data-icon="fish04" viewBox="0 0 100 100" x="0px" y="0px" style="max-width:100%" height="100%"><path d="M90.21,53.621l6.132-3.02c-5.06-2.967-15.17-9.68-28.707-12.273c0,0-1.717-7.812-4.45-9.791  c-6.635,7.828-20.228,5.826-23.314,11.147l-9.859-5.159l5.605,7.1c-7.533,3.271-11.432,6.332-20.218,9.943  c0,0-2.779-10.82-12.898-14.131c6.644,6.33,11.942,17.439,1.456,29.129c8.094-1.662,11.257-12.23,11.257-12.23  c2.937,1.636,9.154,4.679,16.599,7.432l-5.634,6.719l9.684-5.309c7.47,2.438,16.133,4.36,24.896,4.36  c0.923,0,0.514,0.022,1.402-0.021l-1.983,3.945l7.712-4.379c14.184-1.811,23.715-8.617,29.304-11.918  C99.264,53.942,90.21,53.621,90.21,53.621z M62.337,54.713c-5.65-2.287-15.902-2.549-15.902-2.549  c13.117-6.39,22.333-1.345,22.333-1.345L62.337,54.713z M74.912,62.104c-0.239-0.079-0.498-0.228-0.811-0.384  c-0.159-0.075-0.313-0.176-0.478-0.283s-0.339-0.221-0.515-0.349c-0.168-0.139-0.344-0.283-0.525-0.433  c-0.182-0.152-0.343-0.338-0.524-0.516c-0.345-0.37-0.678-0.798-0.971-1.277c-0.295-0.478-0.544-1.008-0.743-1.566  c-0.187-0.561-0.334-1.147-0.406-1.74c-0.08-0.593-0.094-1.188-0.064-1.767c0.02-0.288,0.039-0.575,0.085-0.853  c0.035-0.28,0.086-0.553,0.146-0.818c0.114-0.531,0.267-1.031,0.438-1.492c0.167-0.463,0.366-0.883,0.556-1.263  c0.393-0.757,0.8-1.337,1.109-1.722c0.313-0.384,0.522-0.576,0.522-0.576s-0.063,0.271-0.174,0.746  c-0.105,0.472-0.254,1.135-0.399,1.919c-0.068,0.394-0.146,0.813-0.204,1.259c-0.064,0.443-0.114,0.909-0.151,1.386  c-0.038,0.478-0.049,0.966-0.049,1.458c0.017,0.49,0.033,0.986,0.109,1.471c0.049,0.489,0.168,0.961,0.278,1.428  c0.032,0.115,0.073,0.227,0.108,0.34c0.036,0.113,0.061,0.23,0.105,0.339c0.042,0.11,0.084,0.22,0.126,0.327  c0.041,0.109,0.079,0.22,0.131,0.322c0.184,0.422,0.389,0.824,0.61,1.195c0.115,0.183,0.218,0.37,0.336,0.539  c0.119,0.172,0.234,0.338,0.345,0.496c0.113,0.158,0.236,0.301,0.345,0.445c0.108,0.146,0.216,0.281,0.325,0.401  c0.217,0.241,0.392,0.479,0.561,0.647c0.326,0.352,0.511,0.574,0.511,0.574S75.377,62.28,74.912,62.104z M85.112,52.407  c-1.676,0-3.034-1.358-3.034-3.034s1.358-3.035,3.034-3.035s3.034,1.359,3.034,3.035S86.788,52.407,85.112,52.407z" style="" fill="currentColor"></path></svg>