<svg xmlns="http://www.w3.org/2000/svg" xmlns:xlink="http://www.w3.org/1999/xlink" version="1.1" x="0px" y="0px" viewBox="0 0 100 100" enable-background="new 0 0 100 100" xml:space="preserve" style="max-width:100%" height="100%"><circle cx="51.342" cy="24.537" r="6.112" style="" fill="currentColor"></circle><path d="M91.5,60.575h-6.782L62.681,26.839L51.729,43.267L39.146,20.499L16.169,60.575H8.5c-1.104,0-2,0.896-2,2s0.896,2,2,2h24.341  v-8.697l-0.978,1.027l-2.173-2.068l3.151-3.309v-1.262l-1.062,1.115l-2.173-2.068l3.235-3.397v-1.174l-1.062,1.115l-2.173-2.068  l3.604-3.784c0.281-0.295,0.67-0.463,1.077-0.466c0.42-0.021,0.798,0.161,1.083,0.452l3.694,3.784l-2.146,2.096l-1.076-1.103v1.23  l3.223,3.301l-2.146,2.096l-1.076-1.103v1.144l3.306,3.387L37,56.919l-1.159-1.188v8.844h7.854v-8.698l-0.979,1.028l-2.172-2.068  l3.151-3.309v-1.262l-1.062,1.115l-2.173-2.068l3.235-3.397v-1.174l-1.062,1.115l-2.173-2.068l3.604-3.784  c0.281-0.295,0.67-0.463,1.077-0.466c0.413-0.021,0.798,0.161,1.083,0.452l3.693,3.784l-2.146,2.096l-1.075-1.102v1.229l3.222,3.301  l-2.146,2.096l-1.075-1.102v1.143L50,54.823l-2.146,2.096l-1.159-1.188v8.844h13.154v-8.596l-0.98,1.029l-2.173-2.068l3.153-3.311  v-1.261l-1.065,1.117l-2.172-2.07l3.237-3.396v-1.176l-1.065,1.118l-2.172-2.07l3.606-3.784c0.281-0.295,0.67-0.462,1.077-0.465  c0.003,0,0.006,0,0.009,0c0.404,0,0.791,0.163,1.073,0.452l3.693,3.784l-2.146,2.096l-1.075-1.102v1.229l3.222,3.301l-2.146,2.096  l-1.075-1.102v1.145l3.306,3.385l-2.146,2.096l-1.159-1.187v8.739H91.5c1.104,0,2-0.896,2-2S92.604,60.575,91.5,60.575z" style="" fill="currentColor"></path><g style="" fill="currentColor"><path d="M23.5,72.25c0-0.828-0.671-1.5-1.5-1.5H10.25c-0.829,0-1.5,0.672-1.5,1.5s0.671,1.5,1.5,1.5H22   C22.829,73.75,23.5,73.078,23.5,72.25z" style="" fill="currentColor"></path><path d="M53,70.75h-8.5c-0.829,0-1.5,0.672-1.5,1.5s0.671,1.5,1.5,1.5H53c0.828,0,1.5-0.672,1.5-1.5S53.828,70.75,53,70.75z" style="" fill="currentColor"></path><path d="M88.75,70.75H75c-0.828,0-1.5,0.672-1.5,1.5s0.672,1.5,1.5,1.5h13.75c0.828,0,1.5-0.672,1.5-1.5S89.578,70.75,88.75,70.75z   " style="" fill="currentColor"></path><path d="M72,78.5h-8.5c-0.828,0-1.5,0.672-1.5,1.5s0.672,1.5,1.5,1.5H72c0.828,0,1.5-0.672,1.5-1.5S72.828,78.5,72,78.5z" style="" fill="currentColor"></path><path d="M29.5,82.403H21c-0.829,0-1.5,0.672-1.5,1.5s0.671,1.5,1.5,1.5h8.5c0.829,0,1.5-0.672,1.5-1.5S30.329,82.403,29.5,82.403z" style="" fill="currentColor"></path></g></svg>