<svg xmlns="http://www.w3.org/2000/svg" xmlns:xlink="http://www.w3.org/1999/xlink" version="1.1" x="0px" y="0px" viewBox="0 0 100 100" enable-background="new 0 0 100 100" xml:space="preserve" style="max-width:100%" height="100%"><path d="M88.824,72.656H53.688v-3.078h35.137V72.656z M91.9,75.41h3.076v14.299v3.268V95h-90v-5.291h29.171  c0.565-1.443,0.875-3.197,0.875-4.775c0-1.205,0.079-4.461,0.181-8.191l-8.774-9.982c-0.162,0.004-0.32,0.023-0.486,0.023  c-9.518,0-17.235-7.26-17.235-16.215c0-1.706,0.285-3.347,0.805-4.892c-2.075-2.348-3.326-5.364-3.326-8.655  c0-7.482,6.45-13.548,14.404-13.548c1.205,0,2.369,0.154,3.486,0.416c1.269-5.147,6.163-8.991,12.021-8.991  c5.702,0,10.487,3.638,11.906,8.578c0.02,0,0.042-0.003,0.063-0.003c6.61,0,11.968,5.041,11.968,11.257  c0,2.609-0.949,5.006-2.535,6.913c0.631,1.682,0.988,3.484,0.988,5.37c0,8.954-7.717,16.213-17.234,16.213  c-0.112,0-0.221-0.014-0.334-0.018c0.158,5.908,0.484,18.611,0.484,21.725c0,1.758,0.283,3.432,0.879,4.775h5.572V75.41h3.076v5.828  H91.9V75.41z M35.355,71.477c0.084-2.85,0.17-5.549,0.229-7.465c-1.631,1.037-3.467,1.797-5.429,2.264L35.355,71.477z   M56.762,84.314v5.395H85.75v-5.395H56.762z M50.934,89.709h2.754v-5.395h-2.754V89.709z M91.9,89.709v-5.395h-3.076v5.395H91.9z   M53.688,78.484h35.137V75.41H53.688V78.484z M87.287,20.473c4.271,0,7.736-3.465,7.736-7.736C95.023,8.463,91.559,5,87.287,5  c-4.275,0-7.736,3.463-7.736,7.736C79.551,17.008,83.012,20.473,87.287,20.473z" style="" fill="currentColor"></path></svg>