<svg xmlns="http://www.w3.org/2000/svg" xmlns:xlink="http://www.w3.org/1999/xlink" version="1.1" x="0px" y="0px" viewBox="0 0 96 96" style="enable-background:new 0 0 96 96;max-width:100%" xml:space="preserve" height="100%"><g style="" fill="currentColor"><path d="M89.7,65.2c-0.9-18.1-15-33.1-33.9-36.4c0.9-1.5,1.4-3.2,1.4-4.9c0-5.1-4.1-9.2-9.2-9.2s-9.2,4.1-9.2,9.2   c0,1.8,0.5,3.5,1.4,4.9c-19,3.3-33,18.3-33.9,36.4h-5v6h93.5v-6H89.7z M48,20.7c1.8,0,3.2,1.5,3.2,3.2c0,1.8-1.5,3.2-3.2,3.2   s-3.2-1.5-3.2-3.2C44.8,22.1,46.2,20.7,48,20.7z" style="" fill="currentColor"></path><rect x="1.3" y="75.3" width="93.5" height="6" style="" fill="currentColor"></rect></g></svg>